<svg width="960" height="256" viewBox="0 0 960 256" fill="none" xmlns="http://www.w3.org/2000/svg">
  <g transform="translate(16 8) scale(5)">
    <rect x="1" y="1" width="46" height="46" rx="10.5" fill="#F7F3EA"/>
    <path d="M5 8.5C11.6 8.5 17.7 10.2 22 13.4V39.8C17.7 36.6 11.6 34.9 5 34.9V8.5Z" stroke="#6F6FE8" stroke-width="2.6" stroke-linejoin="round"/>
    <path d="M43 8.5C36.4 8.5 30.3 10.2 26 13.4V39.8C30.3 36.6 36.4 34.9 43 34.9V8.5Z" stroke="#6F6FE8" stroke-width="2.6" stroke-linejoin="round"/>
    <path d="M9.25 15.1C12.85 15.45 16.05 16.35 18.75 17.75" stroke="#6F6FE8" stroke-width="2.6" stroke-linecap="round"/>
    <path d="M9.25 21.1C12.85 21.45 16.05 22.35 18.75 23.75" stroke="#6F6FE8" stroke-width="2.6" stroke-linecap="round"/>
    <path d="M9.25 27.1C12.85 27.45 16.05 28.35 18.75 29.75" stroke="#6F6FE8" stroke-width="2.6" stroke-linecap="round"/>
    <path d="M30 16.1C32.85 14.95 35.9 14.25 39 14.05V18.25C35.9 18.45 32.85 19.15 30 20.3V16.1Z" fill="#FF5A47"/>
    <path d="M30 23.25C32.85 22.1 35.9 21.4 39 21.2V25.4C35.9 25.6 32.85 26.3 30 27.45V23.25Z" fill="#FF5A47"/>
    <path d="M30 30.4C32.85 29.25 35.9 28.55 39 28.35V32.55C35.9 32.75 32.85 33.45 30 34.6V30.4Z" fill="#FF5A47"/>
  </g>
  <text x="292" y="166" fill="#F8FAFC" font-family="Arial, Helvetica, sans-serif" font-size="116" font-weight="800" letter-spacing="-5">Set</text>
  <text x="470" y="166" fill="#FF6B59" font-family="Arial, Helvetica, sans-serif" font-size="116" font-weight="800" letter-spacing="-5">Book</text>
</svg>
